<?xml version="1.0" encoding="UTF-8"?>
<svg width="100px" height="100px" viewBox="0 0 100 100" version="1.1" xmlns="http://www.w3.org/2000/svg" xmlns:xlink="http://www.w3.org/1999/xlink">
    <!-- Generator: Sketch 49.3 (51167) - http://www.bohemiancoding.com/sketch -->
    <title>image/glass/shot/grey@1x</title>
    <desc>Created with Sketch.</desc>
    <defs></defs>
    <g id="image/glass/shot/grey" stroke="none" stroke-width="1" fill="none" fill-rule="evenodd">
        <path d="M33.2931034,70.6052632 C31.9123916,70.6052632 30.7931034,69.485975 30.7931034,68.1052632 C30.7931034,66.7245513 31.9123916,65.6052632 33.2931034,65.6052632 L66.9412593,65.6052632 C68.3219712,65.6052632 69.4412593,66.7245513 69.4412593,68.1052632 C69.4412593,69.485975 68.3219712,70.6052632 66.9412593,70.6052632 L33.2931034,70.6052632 Z" id="Line-4" fill="#999999" fill-rule="nonzero"></path>
        <path d="M32.9298116,57.5 L37.8685371,88.5 L61.1314629,88.5 L66.0701884,57.5 L32.9298116,57.5 Z M30,52.5 L69,52.5 C70.5376037,52.5 71.710776,53.8748696 71.4688654,55.3933241 L65.7335712,91.3933241 C65.540233,92.6068934 64.4935794,93.5 63.2647059,93.5 L35.7352941,93.5 C34.5064206,93.5 33.459767,92.6068934 33.2664288,91.3933241 L27.5311346,55.3933241 C27.289224,53.8748696 28.4623963,52.5 30,52.5 Z" id="Rectangle-11" fill="#999999" fill-rule="nonzero"></path>
    </g>
</svg>